<svg version="1.1" id="Layer_1" xmlns="http://www.w3.org/2000/svg" xmlns:xlink="http://www.w3.org/1999/xlink" x="0px" y="0px"
	 width="800px" height="600px" viewBox="0 0 800 600" enable-background="new 0 0 800 600" xml:space="preserve">
<g>
	
		<rect x="122.404" y="80.368" transform="matrix(0.9729 -0.2314 0.2314 0.9729 -23.8976 34.4187)" fill="#C1272D" width="24.787" height="77.462"/>
	
		<rect x="156.107" y="71.63" transform="matrix(0.9729 -0.2314 0.2314 0.9729 -18.9941 42.2332)" fill="#C1272D" width="28.919" height="60.938"/>
	
		<rect x="197.771" y="62.507" transform="matrix(0.9729 -0.2313 0.2313 0.9729 -17.7243 51.2981)" fill="#C1272D" width="24.272" height="77.461"/>
	
		<rect x="143.164" y="88.529" transform="matrix(0.9729 -0.2314 0.2314 0.9729 -19.0655 37.2077)" fill="#C1272D" width="11.877" height="22.722"/>
	
		<rect x="182.853" y="77.743" transform="matrix(0.9729 -0.2313 0.2313 0.9729 -15.4914 46.0897)" fill="#C1272D" width="11.877" height="22.722"/>
	<path fill="#C1272D" d="M134.357,80.581c0.339,1.422-0.538,2.85-1.96,3.188l-10.545,2.515c-1.421,0.339-2.849-0.539-3.188-1.96
		l-0.093-0.39c-0.339-1.421,0.539-2.85,1.96-3.188l10.545-2.515c1.422-0.339,2.85,0.539,3.189,1.96L134.357,80.581z"/>
	<path fill="#C1272D" d="M209.335,62.548c0.339,1.422-0.539,2.85-1.96,3.189l-10.545,2.515c-1.422,0.339-2.85-0.538-3.188-1.96
		l-0.093-0.39c-0.339-1.422,0.539-2.85,1.96-3.189l10.545-2.515c1.422-0.339,2.85,0.539,3.188,1.96L209.335,62.548z"/>
	<path fill="#C1272D" d="M151.441,154.609c0.339,1.422-0.538,2.85-1.96,3.188l-10.545,2.515c-1.421,0.339-2.849-0.539-3.188-1.96
		l-0.093-0.391c-0.339-1.421,0.539-2.85,1.96-3.188l10.545-2.515c1.422-0.339,2.85,0.539,3.189,1.96L151.441,154.609z"/>
	<path fill="#C1272D" d="M226.418,136.576c0.339,1.422-0.539,2.85-1.96,3.189l-10.545,2.515c-1.422,0.339-2.85-0.538-3.188-1.96
		l-0.093-0.39c-0.339-1.422,0.539-2.85,1.96-3.189l10.545-2.515c1.421-0.339,2.85,0.539,3.188,1.96L226.418,136.576z"/>
</g>
<g>
	<g>
		<g>
			<g>
				<polygon fill="#C1272D" points="322.91,174.953 323.444,174.889 323.351,174.327 				"/>
				<polygon fill="#C1272D" points="415.21,273.228 414.742,270.397 435.078,267.967 435.06,267.855 434.735,265.894 
					431.482,266.283 431.367,265.594 426.677,237.258 426.171,237.318 429.118,236.967 429.082,236.747 428.059,230.565 
					428.088,230.747 423.208,231.331 423.178,231.149 417.489,196.777 420.808,196.38 420.742,196.388 415.273,163.346 
					415.365,163.909 395.029,166.338 394.4,162.538 394.457,162.883 368.772,165.951 343.209,169.004 343.781,172.46 
					323.444,174.889 328.82,207.37 331.752,207.02 332.014,206.615 337.763,241.353 337.471,241.573 332.099,242.214 
					333.129,248.434 336.384,248.045 341.073,276.381 341.226,277.065 337.934,277.458 338.277,279.532 358.613,277.102 
					359.082,279.933 358.774,280.607 361.625,280.266 362.108,283.175 362.118,283.731 367.892,283.042 370.408,298.243 
					370.526,298.23 390.276,295.871 409.455,293.58 406.938,278.377 407.166,278.35 413.445,277.599 413.355,277.052 
					412.875,274.144 412.485,274.19 415.314,273.853 				"/>
				<polygon fill="#C1272D" points="343.128,169.014 343.209,169.004 343.152,168.66 				"/>
			</g>
		</g>
	</g>
	<g>
		<g>
			<polygon fill="#C1272D" points="409.698,290.026 369.836,294.788 370.98,301.699 410.841,296.938 			"/>
		</g>
	</g>
</g>
<g>
	<polyline fill="#C1272D" points="527.968,200.831 528.362,191.096 529.106,191.211 533.854,191.403 533.188,191.291 
		533.437,185.118 534.105,185.2 526.508,184.892 525.166,184.784 526.701,146.8 528.042,146.984 516.646,146.522 515.674,146.354 
		512.813,217.1 513.802,216.827 542.292,217.979 541.761,218.271 542.452,201.177 542.961,201.438 528.658,200.858 	"/>
	<polyline fill="#C1272D" points="511.711,56.573 511.293,66.912 507.157,66.744 506.935,72.258 475.917,71.003 474.579,104.088 
		459.417,103.475 463.096,12.493 478.259,13.106 476.614,53.772 507.631,55.027 507.575,56.406 511.711,56.573 	"/>
	
		<rect x="518.522" y="54.355" transform="matrix(0.9992 0.0404 -0.0404 0.9992 3.5009 -21.1296)" fill="#C1272D" width="12.417" height="43.459"/>
	
		<rect x="513.108" y="105.982" transform="matrix(0.9992 0.0403 -0.0403 0.9992 5.452 -20.9214)" fill="#C1272D" width="15.865" height="37.252"/>
	
		<rect x="541.565" y="58.082" transform="matrix(0.9992 0.0404 -0.0404 0.9992 5.3278 -22.0236)" fill="#C1272D" width="12.417" height="125.548"/>
	
		<rect x="535.216" y="185.641" transform="matrix(0.9992 0.0404 -0.0404 0.9992 8.2226 -21.8536)" fill="#C1272D" width="19.316" height="13.796"/>
	
		<rect x="552.502" y="204.7" transform="matrix(0.9992 0.0406 -0.0406 0.9992 8.9392 -22.3775)" fill="#C1272D" width="5.519" height="8.277"/>
	
		<rect x="543.95" y="212.72" transform="matrix(0.9992 0.0404 -0.0404 0.9992 9.1525 -21.9926)" fill="#C1272D" width="9.658" height="5.519"/>
</g>
<g>
	<path fill="#C1272D" d="M180.893,576.716l-1.154-9.731l-0.853,0.102c-4.357,0.517-8.714,1.034-13.071,1.55l-0.662,0.162
		l-3.475-29.272l0.367-0.045l43.421-5.153l0.043,0.361l-1.631-13.74l-0.701,0.085l28.676-3.404l0.043,0.363l1.617,13.624
		l0.236-0.026l8.887-1.056l0.022,0.186l0.844,7.113l-0.257,0.029l25.8-3.061l-0.025-0.21l-0.625-5.265l-0.341,0.042l69.063-8.196
		l0,0l-1.876-15.813l0,0l-5.474,0.65l0.044,0.361l-1.198-10.092l-0.155,0.017l-4.71,0.56l0.122,1.032l-2.143-18.062l0.395-0.047
		l-61.819,7.337l0,0l1.948,16.42l0,0l-17.637,2.094l0.042,0.347l-1.124-9.469l-0.808,0.096l-10.14,1.202l0.049,0.407l-0.771-6.487
		l0.647-0.078l-31.663,3.758l0,0c0,0,0.938,7.907,1.226,10.339l-43.853,5.204l0.12,0.459l-4.241-35.741l-0.065,0.009l14.661-1.74
		l-0.008-0.079l-5.332-44.924l-0.853,0.101l-14.352,1.702l-0.045-0.383l-0.604-5.091l0.112-0.014l-8.626,1.024l0,0l0.45,3.795
		l-0.094-0.753l-26.754,3.174l0,0l8.083,68.114l0,0l10.947-1.3l0.097,0.822l3.687,31.069l-0.622-0.196l-6.099,0.724l0,0l5.99,50.478
		l-0.374,0.045l26.525-3.148l0.033,0.276l0.472,3.981l-1.063,0.127l12.011-1.426l0,0l-0.505-4.257l0,0L180.893,576.716"/>
</g>
<g>
	<polygon fill="#C1272D" points="434.282,466.666 435.024,471.928 435.024,471.928 444.121,470.647 444.121,470.647 
		445.488,480.349 445.488,480.349 453.565,479.21 452.765,479.324 453.534,484.781 453.534,484.781 499.704,478.277 
		545.419,471.836 545.107,471.879 544.338,466.422 544.338,466.422 551.615,465.396 551.615,465.396 550.248,455.694 
		551.31,455.545 559.687,454.363 559.343,454.412 558.602,449.15 558.701,449.848 557.915,444.267 558.405,445.267 550.03,446.447 
		548.818,445.548 547.49,436.123 547.513,436.287 540.237,437.313 540.213,437.149 539.477,431.915 539.865,432.416 494.15,438.858 
		447.98,445.363 447.903,444.816 448.641,450.05 449.464,450.102 441.387,451.24 441.364,451.075 442.692,460.499 442.84,461.551 
		433.743,462.831 433.594,461.782 434.381,467.364 	"/>
	<polyline fill="#C1272D" points="501.346,437.845 499.979,428.141 500.11,428.122 484.818,430.277 484.683,429.313 486.187,439.98 
			"/>
	<polyline fill="#C1272D" points="521.976,474.52 522.745,479.978 522.722,479.98 477.005,486.422 476.03,486.41 475.281,481.099 	
		"/>
</g>
<polygon fill="#C1272D" points="666.544,489.873 666.196,483.758 681.481,482.885 681.831,489 713.013,487.219 715.527,531.242 
	639.098,535.607 636.584,491.583 "/>
<polygon fill="#C1272D" points="621.189,558.006 651.761,556.26 652.25,564.821 648.582,565.03 649.246,576.646 625.399,578.01 
	624.736,566.392 621.68,566.566 "/>
<polygon fill="#C1272D" points="574.145,561.306 573.9,557.025 597.134,555.699 598.706,583.214 560.186,585.415 558.86,562.179 "/>
<polyline fill="#C1272D" points="576.788,495.583 574.253,498.772 575.474,520.131 584.035,519.643 583.896,517.195 
	599.792,516.288 599.896,518.123 605.399,517.809 604.317,498.854 590.253,499.657 589.975,494.766 576.524,495.534 "/>
<rect x="374.945" y="552.634" transform="matrix(0.9984 -0.057 0.057 0.9984 -31.493 23.3387)" fill="#C1272D" width="36.745" height="22.048"/>
<polygon fill="#C1272D" points="467.335,581.776 467.003,577.502 493.258,575.459 490.693,542.487 469.933,544.103 471.311,561.811 
	422.464,565.61 423.984,585.148 "/>
<rect x="497.287" y="526.7" transform="matrix(0.9905 -0.1375 0.1375 0.9905 -68.827 75.8111)" fill="#C1272D" width="34.297" height="18.984"/>
<rect x="135.425" y="31.751" transform="matrix(0.9773 -0.2117 0.2117 0.9773 -5.2304 36.71)" fill="#C1272D" width="66.863" height="22.07"/>
<rect x="-0.949" y="313.209" transform="matrix(0.9976 -0.0695 0.0695 0.9976 -22.1435 28.6455)" fill="#4D4D4D" width="802.936" height="38.561"/>
<polyline fill="#4D4D4D" points="339.625,327.98 315.083,331.471 316.29,330.842 288.403,134.77 287.198,135.397 442.91,113.252 
	442.55,113.759 470.311,308.938 469.691,309.482 444.293,313.094 443.356,313.686 418.4,138.204 418.358,138.666 315.653,153.273 
	316.129,153.662 340.832,327.353 "/>
<rect x="195.828" y="101.169" transform="matrix(0.9769 -0.2138 0.2138 0.9769 -24.9341 45.9287)" fill="#A67C52" width="8.082" height="74.139"/>
<g>
	
		<rect x="165.213" y="143.285" transform="matrix(0.98 -0.199 0.199 0.98 -25.6934 36.3382)" fill-rule="evenodd" clip-rule="evenodd" fill="#754C24" width="5.348" height="5.348"/>
	<polyline fill="#754C24" points="171.653,143.011 163.269,144.714 163.33,145.016 166.635,140.756 166.785,140.726 
		171.458,143.304 	"/>
</g>
<g>
	
		<rect x="175.99" y="139.917" transform="matrix(0.98 -0.1991 0.1991 0.98 -24.8167 38.4342)" fill-rule="evenodd" clip-rule="evenodd" fill="#754C24" width="5.348" height="5.348"/>
	<polyline fill="#754C24" points="182.43,139.643 174.046,141.347 174.107,141.648 177.412,137.388 177.562,137.358 
		182.235,139.936 	"/>
</g>
<g>
	
		<rect x="186.094" y="137.224" transform="matrix(0.98 -0.199 0.199 0.98 -24.0689 40.3731)" fill-rule="evenodd" clip-rule="evenodd" fill="#754C24" width="5.348" height="5.347"/>
	<polyline fill="#754C24" points="192.534,136.949 184.149,138.653 184.21,138.954 187.516,134.695 187.665,134.664 
		192.339,137.242 	"/>
</g>
<g>
	<g>
		<path fill="#666666" d="M361.625,465.803c-2.549,0-4.615,2.066-4.615,4.616c0,2.548,2.066,4.616,4.615,4.616
			s4.615-2.068,4.615-4.616C366.241,467.869,364.175,465.803,361.625,465.803z M361.642,472.663c-1.357,0-2.457-1.1-2.457-2.457
			c0-1.356,1.1-2.457,2.457-2.457c1.358,0,2.458,1.101,2.458,2.457C364.1,471.563,363,472.663,361.642,472.663z"/>
	</g>
</g>
<rect x="502.941" y="483.284" transform="matrix(0.991 -0.1337 0.1337 0.991 -62.858 72.2837)" fill="#A67C52" width="8.081" height="42.12"/>
<g>
	
		<rect x="587.561" y="433.261" transform="matrix(0.98 -0.1992 0.1992 0.98 -75.011 126.315)" fill-rule="evenodd" clip-rule="evenodd" fill="#006837" width="5.348" height="5.348"/>
	<polyline fill="#006837" points="594.002,432.987 585.618,434.69 585.678,434.993 588.984,430.734 589.133,430.702 
		593.805,433.281 	"/>
</g>
<g>
	
		<rect x="587.561" y="460.205" transform="matrix(0.9801 -0.1987 0.1987 0.9801 -80.1977 126.495)" fill-rule="evenodd" clip-rule="evenodd" fill="#006837" width="5.348" height="5.346"/>
	<polyline fill="#006837" points="594.002,459.932 585.618,461.634 585.678,461.934 588.984,457.675 589.133,457.646 
		593.805,460.223 	"/>
</g>
<g>
	
		<rect x="603.053" y="479.064" transform="matrix(0.98 -0.199 0.199 0.98 -83.768 130.2081)" fill-rule="evenodd" clip-rule="evenodd" fill="#006837" width="5.348" height="5.348"/>
	<polyline fill="#006837" points="609.494,478.79 601.108,480.493 601.17,480.794 604.475,476.535 604.624,476.506 609.298,479.082 
			"/>
</g>
<rect x="629.543" y="399.672" transform="matrix(0.9941 -0.1082 0.1082 0.9941 -43.2126 74.6731)" fill="#8CC63F" width="74.09" height="71.831"/>
<g>
	
		<rect x="372.86" y="449.107" transform="matrix(0.98 -0.199 0.199 0.98 -82.4114 83.7893)" fill-rule="evenodd" clip-rule="evenodd" fill="#006837" width="5.348" height="5.348"/>
	<polyline fill="#006837" points="379.301,448.833 370.916,450.536 370.977,450.838 374.282,446.578 374.431,446.549 
		379.105,449.125 	"/>
</g>
<g>
	
		<rect x="338.001" y="460.997" transform="matrix(0.98 -0.199 0.199 0.98 -85.4686 77.0809)" fill-rule="evenodd" clip-rule="evenodd" fill="#006837" width="5.348" height="5.347"/>
	<polyline fill="#006837" points="344.441,460.724 336.057,462.426 336.118,462.728 339.423,458.468 339.572,458.438 
		344.245,461.015 	"/>
</g>
<g>
	
		<rect x="355.869" y="455.296" transform="matrix(0.98 -0.1991 0.1991 0.98 -83.9902 80.5392)" fill-rule="evenodd" clip-rule="evenodd" fill="#006837" width="5.347" height="5.348"/>
	<polyline fill="#006837" points="362.31,455.022 353.925,456.726 353.987,457.027 357.291,452.769 357.44,452.738 362.114,455.315 
			"/>
</g>
<rect x="529.833" y="565.698" transform="matrix(0.0839 0.9965 -0.9965 0.0839 1068.9359 -16.3392)" fill="#C1272D" width="27.043" height="14.97"/>
<rect x="244.506" y="40.78" transform="matrix(0.9941 -0.1082 0.1082 0.9941 -6.6451 30.9118)" fill="#8CC63F" width="74.092" height="71.831"/>
<rect x="378.456" y="507.5" fill="none" stroke="#000000" stroke-miterlimit="10" width="74" height="40"/>
<path fill="none" stroke="#000000" stroke-miterlimit="10" d="M377.963,508.23c10.946,0,19.493,8.856,19.493,19.802v0.242
	c0,10.945-8.703,19.802-19.648,19.802"/>
<path fill="none" stroke="#000000" stroke-miterlimit="10" d="M453.013,508.23c-10.945,0-19.557,8.856-19.557,19.802v0.242
	c0,10.945,8.733,19.802,19.681,19.802"/>
</svg>
